<?xml version="1.0" standalone="no"?><!DOCTYPE svg PUBLIC "-//W3C//DTD SVG 1.1//EN" "http://www.w3.org/Graphics/SVG/1.1/DTD/svg11.dtd"><svg t="1771427476625" class="icon" viewBox="0 0 1024 1024" version="1.1" xmlns="http://www.w3.org/2000/svg" p-id="13944" xmlns:xlink="http://www.w3.org/1999/xlink" width="200" height="200"><path d="M86.4 669.184l419.584 178.048a16.64 16.64 0 0 0 12.416 0l419.2-177.6c10.368-4.48 22.4 3.2 22.4 14.72v34.88c0 6.4-4.032 12.352-9.6 14.72L518.4 916.864a19.968 19.968 0 0 1-12.8-0.384l-432-182.848a15.744 15.744 0 0 1-9.6-14.72v-34.816c0-11.648 11.584-19.2 22.4-14.848z m0-116.8l419.584 177.984a16.64 16.64 0 0 0 12.416 0l419.2-177.6c10.368-4.352 22.4 3.2 22.4 14.848v34.752c0 6.4-4.032 12.416-9.6 14.848L518.4 800a15.808 15.808 0 0 1-12.8-0.384L73.6 616.768a15.744 15.744 0 0 1-9.6-14.72v-34.816c0-11.648 11.584-19.2 22.4-14.848z m0-119.168L505.984 611.2a16.64 16.64 0 0 0 12.416 0l419.2-177.6c10.368-4.416 22.4 3.2 22.4 14.784v34.816c0 6.4-4.032 12.416-9.6 14.784L518.4 680.768a19.968 19.968 0 0 1-12.8-0.384L73.6 497.6A15.744 15.744 0 0 1 64 482.816V448c0-11.584 11.584-19.2 22.4-14.784z m273.216-11.584L512 486.4l147.584-62.4 81.6 34.816-223.168 94.4a16.64 16.64 0 0 1-12.416 0L277.568 456.32l82.048-34.752z m448-189.632l142.784 60.416c5.632 2.368 9.6 8.384 9.6 14.784v48.832c0 6.4-3.584 12.352-9.6 14.72l-126.784 53.632-81.984-34.752 136.32-58.048-152.32-64.768 81.92-34.816z m-596.032 1.984l82.048 34.816-147.648 62.4 131.648 55.616-82.432 35.2-121.6-51.648a16.384 16.384 0 0 1-9.6-14.72V307.2c0-6.4 4.032-12.416 9.6-14.784l137.984-58.432z m302.72-125.824l4.096 1.024 207.232 87.616-82.048 34.816L512 176l-136.384 57.984-81.6-34.816 211.968-89.984a16.64 16.64 0 0 1 12.416 0z" fill="#000000" p-id="13945"></path></svg>